<svg width="232" height="35" viewBox="0 0 232 35" fill="none" xmlns="http://www.w3.org/2000/svg">
<path d="M0.1875 4.6227C0.1875 2.06965 2.30267 0 4.91186 0H30.8958C33.505 0 35.6202 2.06965 35.6202 4.6227V30.0475C35.6202 32.6006 33.505 34.6702 30.8958 34.6702H4.91186C2.30267 34.6702 0.1875 32.6006 0.1875 30.0475V4.6227Z" fill="#0C30FA"/>
<g clip-path="url(#clip0)">
<path d="M24.2005 11.8073L20.4486 13.8601L11.6076 9.04774C11.1061 8.77852 10.4746 9.09822 10.4746 9.61984V22.2901C10.4746 22.8117 11.1061 23.1314 11.6076 22.8622L15.3595 20.7926L24.2005 25.6217C24.702 25.891 25.3335 25.5713 25.3335 25.0496V12.3794C25.3335 11.8577 24.702 11.538 24.2005 11.8073Z" fill="white"/>
</g>
<path d="M67.7151 11.0439C65.9071 11.0439 64.3574 11.6938 63.066 12.9575C61.7745 14.2211 61.1104 15.7375 61.1104 17.5066C61.1104 19.3479 61.7745 20.9365 63.1029 22.2363C64.4312 23.536 66.0178 24.222 67.8258 24.222C68.5269 24.222 69.1911 24.1498 69.8183 23.9332C70.4456 23.7527 70.9991 23.536 71.3681 23.3194C71.7739 23.1028 72.1429 22.8501 72.5119 22.5251C72.8809 22.2363 73.1023 22.0197 73.213 21.8752C73.3237 21.7669 73.3975 21.6586 73.4344 21.5864L73.3606 21.5503L73.4344 21.5864L73.4713 21.5142L73.5082 21.4781L71.7739 19.7812L71.7001 19.709L71.6263 19.7812L71.2205 20.2505L71.2943 20.3228L71.2205 20.2505C70.9622 20.5394 70.5194 20.8643 69.8921 21.1893C69.2649 21.5142 68.6007 21.6586 67.8627 21.6586C66.8665 21.6586 65.9809 21.3337 65.2799 20.7199L65.2061 20.7921L65.2799 20.7199C64.5788 20.1061 64.136 19.4201 63.9884 18.5897H73.8402H73.914V18.5175L74.0616 17.2178H73.9878H74.0616C74.0616 15.4487 73.4713 13.9684 72.2536 12.777C71.036 11.6577 69.56 11.0439 67.7151 11.0439ZM65.3536 14.2572C65.9809 13.7157 66.7558 13.4268 67.7151 13.4268C68.6745 13.4268 69.4494 13.7157 70.0766 14.2572C70.667 14.7627 71.0729 15.4487 71.2205 16.243H64.0991C64.3574 15.4487 64.7633 14.7988 65.3536 14.2572Z" fill="#1A1A1A"/>
<path d="M184.754 12.8131C183.536 11.6216 182.023 11.0439 180.215 11.0439C178.407 11.0439 176.857 11.6938 175.566 12.9575C174.275 14.2211 173.61 15.7375 173.61 17.5066C173.61 19.3479 174.275 20.9365 175.603 22.2363C176.931 23.536 178.518 24.222 180.326 24.222C181.027 24.222 181.691 24.1498 182.318 23.9332C182.946 23.7527 183.499 23.536 183.868 23.3194C184.274 23.1028 184.643 22.8501 185.012 22.5251C185.381 22.2363 185.602 22.0197 185.713 21.8752C185.824 21.7669 185.897 21.6586 185.934 21.5864L185.861 21.5503L185.934 21.5864L185.971 21.5142L185.934 21.4781L184.2 19.7812L184.126 19.8534L184.2 19.7812L184.126 19.709L184.053 19.7812L183.647 20.2505L183.72 20.2866L183.647 20.2144C183.388 20.5033 182.946 20.8282 182.318 21.1532C181.691 21.4781 181.027 21.6225 180.289 21.6225C179.293 21.6225 178.444 21.2976 177.706 20.6838L177.669 20.7199L177.706 20.6838L177.632 20.756L177.706 20.6838C177.005 20.07 176.562 19.384 176.415 18.5536H186.266H186.34V18.4814L186.488 17.1817H186.414H186.488C186.562 15.4848 185.971 14.0045 184.754 12.8131ZM177.854 14.2572C178.481 13.7157 179.256 13.4268 180.215 13.4268C181.174 13.4268 181.949 13.7157 182.577 14.2572C183.167 14.7627 183.573 15.4487 183.72 16.243H176.599C176.857 15.4487 177.263 14.7988 177.854 14.2572Z" fill="#1A1A1A"/>
<path d="M53.6546 11.0806C53.2118 11.0806 52.769 11.1167 52.3263 11.2611C51.8835 11.3694 51.5145 11.5138 51.2193 11.6582C50.9241 11.8027 50.6658 11.9471 50.4075 12.1276C50.1493 12.3081 50.0017 12.4525 49.891 12.5247V11.4416V11.3333H49.8172H47.1236H47.0498V11.4055V23.8976V23.9698H47.1236H49.7803H49.8541V23.8976V17.1461C49.8541 16.0269 50.1493 15.1242 50.7396 14.5466C51.33 13.9328 52.1049 13.6079 53.1011 13.6079C53.9498 13.6079 54.6509 13.8967 55.2043 14.4744C55.7578 15.052 56.053 15.7741 56.053 16.6406V23.8976V23.9698H56.1268H58.7835H58.8573V23.8976V16.6406C58.8573 14.9437 58.3776 13.6079 57.3813 12.5969C56.4958 11.5499 55.2043 11.0806 53.6546 11.0806Z" fill="#1A1A1A"/>
<path d="M142.246 11.3335H142.173L142.136 11.3696L142.246 11.4057L142.136 11.3696L139.295 19.7097L136.453 11.3696L136.38 11.4057L136.453 11.3696V11.3335H136.38H133.981H133.907V11.3696L131.066 19.7097L128.225 11.3696V11.3335H128.151H125.347H125.236L125.273 11.4418L125.347 11.4057L125.273 11.4418L129.664 23.8978V23.97H129.738H132.284H132.321L132.358 23.8978L135.199 15.8465L138.003 23.8978H138.114H138.003L138.04 23.97H138.114H140.623H140.697L140.734 23.8978H140.623H140.734L145.088 11.4418L145.161 11.3335H145.014H142.246Z" fill="#1A1A1A"/>
<path d="M94.0573 18.482L94.1311 18.4459C93.799 17.9404 93.3931 17.5794 92.8765 17.3266C92.3969 17.11 91.8434 16.8934 91.2899 16.6768C90.7364 16.4962 90.2199 16.3157 89.7402 16.2074L89.7033 16.2796L89.7402 16.2074C89.2605 16.0991 88.8546 15.9186 88.5594 15.6658C88.2643 15.4492 88.1167 15.1604 88.1167 14.8354C88.1167 14.5105 88.2643 14.2578 88.5594 14.005C88.8915 13.7523 89.2974 13.644 89.8509 13.644C90.2568 13.644 90.6626 13.7523 91.0685 13.9328C91.2899 14.0411 91.4375 14.1134 91.5851 14.1856C91.7327 14.2578 91.8065 14.33 91.8803 14.3661C91.9541 14.4383 91.991 14.4744 92.0648 14.5466C92.1017 14.5827 92.1386 14.6188 92.1755 14.6549L92.2493 14.7271L92.3231 14.6549L94.0573 12.958L94.1311 12.8858L94.0573 12.8136L93.9835 12.8858L94.0573 12.8136L93.8728 12.6331L93.799 12.7053L93.8728 12.6331C93.7621 12.5248 93.5776 12.3804 93.3562 12.2359C93.1348 12.0554 92.8396 11.8749 92.5445 11.7305L92.5076 11.8027L92.5445 11.7305C92.2124 11.55 91.8434 11.4055 91.3268 11.2972C90.8471 11.1889 90.3306 11.1167 89.814 11.1167C88.4856 11.1167 87.4156 11.4777 86.53 12.2359C85.6445 12.9941 85.2017 13.8606 85.2017 14.8354C85.2017 15.5575 85.3493 16.1713 85.6814 16.6768C86.0135 17.1822 86.4193 17.5794 86.9359 17.796C87.4156 18.0126 87.9691 18.2293 88.5225 18.4459C89.076 18.6264 89.5926 18.8069 90.1092 18.9152C90.5888 19.0235 90.9578 19.2402 91.2899 19.4568C91.5851 19.6734 91.7327 19.9623 91.7327 20.2872C91.7327 20.7566 91.5482 21.0815 91.253 21.3703C90.9209 21.6231 90.4044 21.7675 89.7033 21.7675C89.1129 21.7675 88.5594 21.6231 88.006 21.3703C87.4525 21.0815 87.0835 20.8649 86.9359 20.6843C86.7514 20.5038 86.6407 20.3594 86.5669 20.2511L86.4931 20.1428L86.4193 20.215L84.6851 21.9119L84.6113 21.9841L84.6482 22.0563L84.8327 22.309C84.9434 22.4535 85.1648 22.6701 85.4231 22.8867C85.6814 23.1033 86.0135 23.32 86.3824 23.5366C86.7514 23.7532 87.2311 23.9337 87.7846 24.0782C88.3749 24.2226 88.9653 24.2948 89.5926 24.2948C91.0316 24.2948 92.2124 23.8976 93.0979 23.1394C93.9835 22.3451 94.4632 21.4425 94.4632 20.3233C94.4632 19.6373 94.2787 19.0235 93.9835 18.482H94.0573Z" fill="#1A1A1A"/>
<path d="M103.689 11.0806C103.246 11.0806 102.803 11.1167 102.361 11.2612C101.918 11.3695 101.549 11.5139 101.254 11.6583C100.959 11.8027 100.7 11.9471 100.442 12.1277C100.184 12.3082 100.036 12.4526 99.9254 12.5248V5.66498V5.59277H99.8516H97.1949H97.1211V5.66498V23.8616V23.9338H97.1949H99.8516H99.9254V23.8616V17.1462C99.9254 16.0269 100.221 15.1243 100.811 14.5466C101.401 13.9329 102.176 13.6079 103.172 13.6079C104.021 13.6079 104.722 13.8968 105.276 14.4744C105.829 15.0521 106.124 15.7742 106.124 16.6407V23.8977V23.9699H106.198H108.855H108.929V23.8977V16.6407C108.929 14.9438 108.449 13.6079 107.453 12.597C106.53 11.55 105.239 11.0806 103.689 11.0806Z" fill="#1A1A1A"/>
<path d="M148.777 21.2617L148.851 21.1895C148.482 20.8285 148.076 20.6479 147.56 20.6479C147.08 20.6479 146.637 20.8285 146.268 21.1895C145.899 21.5506 145.715 21.9477 145.715 22.4532C145.715 22.9225 145.899 23.3558 146.268 23.6807C146.637 24.0418 147.043 24.1862 147.56 24.1862C148.039 24.1862 148.482 24.0057 148.851 23.6807C149.22 23.3197 149.405 22.9225 149.405 22.4532C149.405 21.9838 149.22 21.5506 148.851 21.1895L148.777 21.2617Z" fill="#1A1A1A"/>
<path d="M83.2464 21.5506V21.4784L83.0619 21.5145L83.0988 21.5867L83.0619 21.5145C82.9512 21.5506 82.8036 21.6228 82.5822 21.659L82.6191 21.7312L82.5822 21.659C82.3609 21.6951 82.1764 21.7312 81.955 21.7312C81.5122 21.7312 81.1801 21.5867 80.8849 21.2979C80.5897 21.0091 80.4421 20.6841 80.4421 20.2148V13.8243H83.025H83.0988V13.7521V11.4053V11.3331H83.025H80.4421V7.25333V7.14502H80.3683H77.9699H77.8962V7.21723V9.81674C77.8962 10.3222 77.7855 10.6832 77.601 10.936C77.4165 11.1526 77.0844 11.297 76.6785 11.297H75.3502H75.2764V11.3692V13.716V13.7882H75.3502H77.6748V20.2148C77.6748 21.5145 77.9699 22.5255 78.5972 23.2114C79.2245 23.8974 80.1838 24.2224 81.4384 24.2224C82.1764 24.2224 82.8036 24.1502 83.3202 23.9696L83.394 23.9335V23.8613V21.5145V21.4062L83.2464 21.4784V21.5506Z" fill="#1A1A1A"/>
<path d="M117.931 11.0439C116.123 11.0439 114.537 11.6938 113.208 13.0297C111.88 14.3294 111.216 15.8819 111.216 17.651C111.216 19.4201 111.88 20.9726 113.208 22.2724C114.537 23.5721 116.123 24.2581 117.931 24.2581C119.739 24.2581 121.326 23.6082 122.654 22.2724C123.983 20.9726 124.684 19.4201 124.684 17.651C124.684 15.8819 124.02 14.3294 122.654 13.0297C121.289 11.6938 119.739 11.0439 117.931 11.0439ZM120.662 20.5394C119.887 21.3337 118.964 21.7308 117.931 21.7308C116.861 21.7308 115.976 21.3337 115.201 20.5394L115.164 20.5755L115.201 20.5394C114.426 19.7451 114.057 18.8064 114.057 17.651C114.057 16.4957 114.426 15.557 115.201 14.7627C115.976 13.9684 116.898 13.5712 117.931 13.5712C118.964 13.5712 119.887 13.9684 120.662 14.7627C121.437 15.557 121.806 16.4957 121.806 17.651C121.806 18.8064 121.4 19.7451 120.662 20.5394Z" fill="#1A1A1A"/>
<path d="M170.033 12.5247L170.107 12.4525C169.221 11.5138 168.041 11.0444 166.528 11.0444C165.974 11.0444 165.458 11.1166 164.941 11.261C164.425 11.4054 164.019 11.586 163.687 11.7665C163.355 11.947 163.096 12.1636 162.801 12.4164L162.875 12.4886L162.801 12.4164C162.543 12.6691 162.358 12.8496 162.248 12.9218L162.321 12.994L162.248 12.9218C162.211 12.9579 162.174 12.994 162.137 13.0301L162.063 12.9218C161.989 12.7774 161.842 12.5969 161.62 12.3803L161.547 12.4525L161.62 12.3803C161.399 12.1636 161.178 11.947 160.882 11.7665C160.587 11.5499 160.218 11.3693 159.739 11.2249C159.259 11.0805 158.779 11.0083 158.263 11.0083C157.598 11.0083 156.971 11.1527 156.381 11.4416L156.418 11.5138L156.381 11.4416C155.79 11.7304 155.385 11.9831 155.2 12.1636C155.089 12.272 155.016 12.3442 154.905 12.4525V11.3693V11.2971H154.831H152.174H152.101V11.3693V23.8614V23.9336H152.174H154.831H154.905V23.8614V17.146C154.905 16.0268 155.2 15.1603 155.717 14.5465C156.27 13.9328 156.934 13.6078 157.709 13.6078C158.521 13.6078 159.111 13.8605 159.591 14.366C160.034 14.8715 160.292 15.6297 160.292 16.6406V23.8975V23.9698H160.366H163.022H163.096V23.8975V17.146C163.096 16.0268 163.391 15.1603 163.908 14.5465C164.461 13.9328 165.126 13.6078 165.901 13.6078C166.712 13.6078 167.303 13.8605 167.782 14.366C168.225 14.8715 168.483 15.6297 168.483 16.6406V23.8975V23.9698H168.557H171.214H171.288V23.8975V16.6045C171.288 14.7993 170.845 13.4273 169.996 12.4525L170.033 12.5247Z" fill="#1A1A1A"/>
<path d="M211.032 17.1517C211.032 20.9989 208.383 23.7189 204.769 23.7189C201.243 23.7189 198.523 20.9095 198.523 17.1517C198.523 13.3581 201.172 10.5308 204.751 10.5308C208.365 10.5308 211.032 13.3402 211.032 17.1517ZM209.045 17.1517C209.045 14.3423 207.327 12.4276 204.751 12.4276C202.245 12.4276 200.51 14.3601 200.51 17.1517C200.51 19.8895 202.281 21.8042 204.769 21.8042C207.345 21.8042 209.045 19.979 209.045 17.1517Z" fill="#A0A0A0"/>
<path d="M221.515 10.7813H211.584V12.5886H215.646V23.4863H217.453V12.5886H221.515V10.7813Z" fill="#A0A0A0"/>
<path d="M232 10.7813H222.069V12.5886H226.131V23.4863H227.938V12.5886H232V10.7813Z" fill="#A0A0A0"/>
<path fill-rule="evenodd" clip-rule="evenodd" d="M192.178 29.4509L192.178 4.10059L192.551 4.10059L192.551 29.4509L192.178 29.4509Z" fill="#A0A0A0"/>
<defs>
<clipPath id="clip0">
<rect width="14.8589" height="16.7759" fill="white" transform="translate(10.4746 8.94727)"/>
</clipPath>
</defs>
</svg>
