<svg width="260" height="40" viewBox="0 0 260 40" fill="none" xmlns="http://www.w3.org/2000/svg">
<path d="M163.445 38.2192V12.5312H172.822V27.949C172.822 27.949 172.717 32.2402 177.403 32.2072C177.403 32.2072 181.208 32.3525 181.489 28.3974V12.5312H190.867V28.1164C190.867 28.1164 190.601 32.1996 195.196 32.359C195.196 32.359 199.392 32.3521 199.675 28.5399V12.5312H208.77V30.3757C208.77 30.3757 208.427 40.234 198.987 39.9293C198.987 39.9293 193.05 39.9669 190.763 34.9942C190.763 34.9942 190.439 40.4735 181.634 39.9293C181.634 39.9293 177.43 39.9293 174.032 36.1244L172.82 34.8256V39.5526L163.445 38.2192Z" fill="#424242"/>
<path d="M146.77 12.5605C139.189 12.5605 133.021 18.6941 133.021 26.2341C133.021 33.771 139.189 39.903 146.77 39.903C154.353 39.903 160.522 33.771 160.522 26.2341C160.522 18.6941 154.353 12.5605 146.77 12.5605ZM146.77 31.9265C143.612 31.9265 141.042 29.3725 141.042 26.2337C141.042 23.093 143.612 20.5382 146.77 20.5382C149.93 20.5382 152.502 23.093 152.502 26.2337C152.502 29.3725 149.93 31.9265 146.77 31.9265Z" fill="#424242"/>
<path d="M53.3048 16.7346C51.2368 14.0196 48.0773 12.584 44.1692 12.584C39.9694 12.584 36.4683 14.1492 34.0454 17.109C31.9979 19.6089 30.8242 23.0628 30.8242 26.584C30.8242 34.9588 36.0875 39.9579 44.9039 39.9579C48.4543 39.9579 51.7148 39.4075 54.3335 38.3651L54.6315 38.2474L53.4377 32.1373L53.023 32.2684C50.7739 32.9766 48.6258 33.2932 46.0583 33.2932C43.0537 33.2932 39.7663 32.2109 39.2575 29.2127H55.6676L55.7254 28.897C55.8553 28.1864 55.9937 26.9738 55.9937 25.6984C55.9937 22.1947 55.0385 19.0103 53.3048 16.7346ZM47.8083 23.0172H39.2089C39.513 21.2132 40.7241 18.6247 43.6971 18.6247C47.1757 18.6247 47.7277 21.7505 47.8083 23.0172Z" fill="#08BBF4"/>
<path d="M216.121 24.7044V39.9581H221.689V30.8027C221.689 30.8027 221.626 28.2544 224.409 28.274C224.409 28.274 226.669 28.1877 226.836 30.5367V39.9577H232.405V30.7038C232.405 30.7038 232.248 28.2793 234.975 28.1843C234.975 28.1843 237.467 28.1881 237.635 30.4524V39.9581H243.036V29.3628C243.036 29.3628 242.832 23.5087 237.226 23.6896C237.226 23.6896 233.701 23.6662 232.343 26.6195C232.343 26.6195 232.15 23.3665 226.922 23.6896C226.922 23.6896 224.425 23.6896 222.408 25.9488L221.687 26.7207V23.9138L216.121 24.7044Z" fill="#08BBF4"/>
<path d="M209.381 37.6326C209.381 38.9192 210.429 39.9673 211.729 39.9673C213.022 39.9673 214.072 38.9195 214.072 37.6326C214.072 36.343 213.021 35.2979 211.729 35.2979C210.429 35.2979 209.381 36.343 209.381 37.6326Z" fill="#08BBF4"/>
<path d="M252.906 23.5088C250.384 23.5088 248.283 24.4474 246.829 26.223C245.6 27.7238 244.895 29.7987 244.895 31.9142C244.895 36.9413 248.054 39.9429 253.349 39.9429C255.488 39.9429 257.451 39.6121 259.025 38.984L259.17 38.9273L258.467 35.3247L258.264 35.3883C256.901 35.8172 255.599 36.0088 254.046 36.0088C252.196 36.0088 250.17 35.3335 249.888 33.4564H259.81L259.838 33.3023C259.915 32.8719 259.999 32.1415 259.999 31.38C259.999 25.5757 256.335 23.5088 252.906 23.5088ZM252.622 27.0653C254.804 27.0653 255.112 29.0647 255.151 29.8063H249.858C250.031 28.6999 250.768 27.0653 252.622 27.0653Z" fill="#08BBF4"/>
<path d="M76.1628 19.1692V11.9526L70.479 11.9465L70.4659 0.011719L61.0941 1.66505L61.0775 12.0066H57.5684V19.1688H61.0775V29.331C61.0775 33.1531 61.8723 35.829 63.5062 37.5126C64.9979 39.0574 67.3931 39.9431 70.0777 39.9431C72.4297 39.9431 74.456 39.6745 75.6374 39.205L76.004 39.059L75.9408 31.811L75.2655 31.9321C74.4977 32.0704 73.7364 32.1379 72.9393 32.1379C71.2133 32.1379 70.2782 31.4933 70.2782 28.095V19.1692H76.1628Z" fill="#08BBF4"/>
<path d="M91.8404 23.0108C88.9249 21.996 88.1266 21.4786 88.1266 20.6036C88.1266 19.2945 89.8342 19.153 90.5681 19.153C92.4575 19.153 94.5698 19.8701 95.8048 20.4841L96.4296 20.7956L98.0543 14.3345L97.6522 14.134C95.6972 13.1625 92.9521 12.583 90.309 12.583C83.9129 12.583 79.4463 16.217 79.4463 21.4173C79.4093 23.4968 80.3521 27.3074 87.074 29.4708C90.0442 30.4723 90.3692 30.9962 90.3692 31.8765C90.3692 32.2479 90.3692 33.3773 87.5658 33.3773C85.3699 33.3773 82.4867 32.4583 81.0748 31.6048L80.4242 31.2127L78.7363 37.9257L79.1191 38.1315C81.3285 39.3188 84.4074 40.0006 87.5654 40.0006C94.6484 40.0006 99.0487 36.6487 99.0487 31.251C98.9928 27.2396 96.7009 24.622 91.8404 23.0108Z" fill="#424242"/>
<path d="M102.35 1.88175V39.9912H111.772V24.1335C111.772 24.1335 111.651 20.4708 115.387 20.1313C115.387 20.1313 120.244 19.6576 120.341 23.4651V39.9912H129.66V23.0152C129.66 23.0152 129.509 14.6159 121.907 13.2393C121.907 13.2393 114.827 11.6504 111.746 15.6078L111.772 0L102.35 1.88175Z" fill="#424242"/>
<path d="M0 13.019V39.8433H9.55027L9.60654 23.6093C9.60654 23.6093 9.59961 19.9443 13.8449 19.9761C13.8449 19.9761 18.1095 19.7741 18.2383 23.3084L18.2437 39.9169H27.6907V22.709C27.6907 22.709 27.6907 14.0058 19.8302 12.8013C19.8302 12.8013 11.4451 11.156 7.68739 15.9113L5.4992 11.9336L0 13.019Z" fill="#08BBF4"/>
</svg>
